# xmcd
#
# Track frame offsets: 
#        150
#        14690
#        31055
#        46980
#        62350
#        81182
#        93782
#        106357
#        132755
#        143915
#        156125
#        171620
#        184760
#        201075
#        213035
#        224367
#
# Disc length: 3106 seconds
#
# Revision: 0
# Processed by: cddbd v1.5.2PL0 Copyright (c) Steve Scherf et al.
# Submitted via: ExactAudioCopy v0.99pb5
#
DISCID=d90c2010
DTITLE=Boxcar Willie - Master Classics
DYEAR=2004
DGENRE=Country
TTITLE0=Truck Driving Man
TTITLE1=Freightliner Fever
TTITLE2=Phantom 309
TTITLE3=White Line Fever
TTITLE4=Convoy
TTITLE5=How Fast Them Trucks Will Go
TTITLE6=Trucker's Prayer
TTITLE7=Teddy Bear
TTITLE8=Six Days On The Road
TTITLE9=Truck Drivin' Son Of A Gun
TTITLE10=Girl On A Billboard
TTITLE11=North To Alaska
TTITLE12=Forty Acres
TTITLE13=Dixie
TTITLE14=Yankee Doodle
TTITLE15=Battle Hymn Of The Republic
EXTD=
EXTT0=
EXTT1=
EXTT2=
EXTT3=
EXTT4=
EXTT5=
EXTT6=
EXTT7=
EXTT8=
EXTT9=
EXTT10=
EXTT11=
EXTT12=
EXTT13=
EXTT14=
EXTT15=
PLAYORDER=
